/* XPM */
static char *_610687152245[] = {
/* columns rows colors chars-per-pixel */
"64 64 244 2 ",
"   c #140D08",
".  c #1D140D",
"X  c #070200",
"o  c #271C15",
"O  c #24190B",
"+  c #2C2215",
"@  c #2D241B",
"#  c #28231A",
"$  c #34241C",
"%  c #35291D",
"&  c #3A2C1D",
"*  c #332215",
"=  c #2D2621",
"-  c #342C23",
";  c #3C2D23",
":  c #372A25",
">  c #3C3224",
",  c #3E342A",
"<  c #3C3529",
"1  c #3D3432",
"2  c #3D3833",
"3  c #422B1D",
"4  c #47331E",
"5  c #442C25",
"6  c #443324",
"7  c #493524",
"8  c #4D3D25",
"9  c #43352B",
"0  c #4B362D",
"q  c #443A2C",
"w  c #4B3B2C",
"e  c #433925",
"r  c #523B2D",
"t  c #533A28",
"y  c #453B32",
"u  c #4B3D32",
"i  c #473938",
"p  c #523D31",
"a  c #553F35",
"s  c #4B412D",
"d  c #54432D",
"f  c #5A442D",
"g  c #5D4A2E",
"h  c #4C4134",
"j  c #4D443B",
"k  c #474037",
"l  c #544434",
"z  c #5B4533",
"x  c #5C4A35",
"c  c #54453B",
"v  c #5B463A",
"b  c #55493B",
"n  c #5C4B3B",
"m  c #564835",
"M  c #5C513D",
"N  c #5B5034",
"B  c #64492E",
"V  c #624633",
"C  c #634C35",
"Z  c #694C36",
"A  c #62463B",
"S  c #634D3C",
"D  c #6A4D3B",
"F  c #68463C",
"G  c #704C39",
"H  c #645236",
"J  c #64533C",
"K  c #6B533D",
"L  c #6C5A3E",
"P  c #695536",
"I  c #71553D",
"U  c #725B3E",
"Y  c #7A5A3C",
"T  c #60502F",
"R  c #76633E",
"E  c #4B3A42",
"W  c #4C4641",
"Q  c #554B42",
"!  c #5B4D42",
"~  c #554845",
"^  c #5D5243",
"/  c #5C534A",
"(  c #5B5547",
")  c #5E5651",
"_  c #5B4F51",
"`  c #634E42",
"'  c #694F44",
"]  c #645343",
"[  c #6B5444",
"{  c #655943",
"}  c #6C5A44",
"|  c #64554A",
" . c #6B554A",
".. c #655A4B",
"X. c #6C5B4B",
"o. c #715543",
"O. c #735C44",
"+. c #725649",
"@. c #735C4B",
"#. c #795E4A",
"$. c #7C5C44",
"%. c #665B52",
"&. c #6B5C52",
"*. c #685A59",
"=. c #745E52",
"-. c #7A5E54",
";. c #735D5A",
":. c #6E624D",
">. c #746244",
",. c #7B6244",
"<. c #74624C",
"1. c #7B644C",
"2. c #7C6A4D",
"3. c #78684B",
"4. c #6D6253",
"5. c #6E625A",
"6. c #746353",
"7. c #7A6553",
"8. c #756955",
"9. c #7C6A54",
"0. c #74645B",
"q. c #7B655B",
"w. c #766A5B",
"e. c #7B6C5B",
"r. c #7D715D",
"t. c #7E7056",
"y. c #7C6562",
"u. c #746A63",
"i. c #7C6C63",
"p. c #756A67",
"a. c #7E7363",
"s. c #7E736B",
"d. c #7C7371",
"f. c #6C6260",
"g. c #805D4A",
"h. c #846B4C",
"j. c #856449",
"k. c #83714E",
"l. c #8D754D",
"z. c #816552",
"x. c #826B54",
"c. c #8A6C54",
"v. c #81665C",
"b. c #826C5C",
"n. c #8A6D5C",
"m. c #837155",
"M. c #8B7155",
"N. c #84735C",
"B. c #8B735C",
"V. c #8C7A5D",
"C. c #877959",
"Z. c #947A5D",
"A. c #96765A",
"S. c #956C50",
"D. c #836D63",
"F. c #866E67",
"G. c #837463",
"H. c #8A7463",
"J. c #847965",
"K. c #8C7B64",
"L. c #84746B",
"P. c #8A756B",
"I. c #85796A",
"U. c #8C7C6B",
"Y. c #927663",
"T. c #947C64",
"R. c #937D6A",
"E. c #977B68",
"W. c #8B7C71",
"Q. c #877874",
"!. c #947C72",
"~. c #947C77",
"^. c #A27C65",
"/. c #96805B",
"(. c #A9835F",
"). c #8D816B",
"_. c #948265",
"`. c #9B8366",
"'. c #94836B",
"]. c #99846C",
"[. c #9B896D",
"{. c #938966",
"}. c #8D8174",
"|. c #8D817C",
" X c #948473",
".X c #9B8473",
"XX c #968972",
"oX c #9C8B74",
"OX c #94847A",
"+X c #9D8C7B",
"@X c #99877A",
"#X c #9E927C",
"$X c #9E9175",
"%X c #A2856D",
"&X c #A48C6E",
"*X c #AA8B6D",
"=X c #A38D74",
"-X c #A98D73",
";X c #A38D7A",
":X c #A78875",
">X c #A49175",
",X c #A3937B",
"<X c #AA957D",
"1X c #AC9A7D",
"2X c #A99778",
"3X c #B49D7E",
"4X c #B78E78",
"5X c #B4A07D",
"6X c #978984",
"7X c #9E9180",
"8X c #A49482",
"9X c #A69B82",
"0X c #AC9C83",
"qX c #AB9688",
"wX c #B29D84",
"eX c #B69E86",
"rX c #A79691",
"tX c #A98D87",
"yX c #AFA085",
"uX c #AEA288",
"iX c #B3A285",
"pX c #B9A485",
"aX c #B4A48A",
"sX c #B9A58C",
"dX c #BBAA8D",
"fX c #B6A88C",
"gX c #BDAD92",
"hX c #B7A593",
"jX c #C2AD8D",
"kX c #C2A58A",
"lX c #C0B08F",
"zX c #C2AE93",
"xX c #CFAE9D",
"cX c #C4B294",
"vX c #C9B495",
"bX c #C5B499",
"nX c #CBB69A",
"mX c #CCBA9B",
"MX c #D2BC9D",
"NX c #CDBDA3",
"BX c #D2BEA2",
"VX c #D5C2A2",
"CX c #DBC6A7",
"ZX c #E2CBAB",
/* pixels */
"8.{ { jX8X| R.dX=X'.sXeX0Xl S X.] L x.K [ e.}.0X9XsX! | >X=XH.+.A.*XfX] ~ J.0.L.w.e.X.N.1XvX!   ` ] 5 8.sXaXMXl = I.H C ..6.a.G.",
"q M cXK.<.`.N.0.0XsX>XdX9X- C x.@.H <.} m C. XL. XsXgXK.#.V  .-.Z Z A.nXQ m m i < | w > :.>XNX( o y b.dXiX0XdXMXq j >.M { 0.6.] ",
"( gX X; p v S 6.Q.~.P.oXcXN.+ r ] :.G.&.] 4 q ^ U.9XH.V Z I S q.z.F G -X#X+ J oX.Xb , 2 | >XmXmX).,XBXiX0X=Xt.mX0X. m 9.z & u ^ ",
"0XgX..$ 9.q.n a %.6XP.'.'.aX,Xr.8.i.J.a.| 6.>XwX9XG.z K @.I C w.F.$.B 1.mX#XaXaXiX1XaXzXvXdXK.'.wX1X_. X+X4.>.XXMX X. < m U.#X1X",
"L h.0X] b 6.v n e.L.i.A ! 9XaXx.K.C.x.].[.vX$X3 #.E.z.v.#.o.V ` =.V J iX,XaX[.6.'.[.sXwXoX8.m 6.H.} } a.W.}. X@XoXMXoXJ.0XoX3.,.",
"H z =XcXw 6 J 8.OXL.Q 0 N.CX6.y 8.] l } ).'.1Xw.w 5 r v 0 r V Z D F [.,Xb I.H [ n.'.sX'.& J { 6.@.{ } ] w.}.L.OX@XoXvX1XN.M d <.",
"| n 3.-XoX= : S X.c ^ '.aXnXXX2 { { C n X.:.'.gX'.8.r.N.4.b l + 3 7.NX4.& w.S [ ] h.&XdX2 e 3.4.8.8.} x M J w.w.J.wX4.K N.3.! 4.",
"L.U...x 1XsX=.n M R.aX>X'.'.wXXX2 w J n l 9.G.8.$._.iXMXVXfXaXXXS `.vXh v N.1.X.X...0XgX1X% h K z J 8.5.J { N m ,XN.w f } K x ..",
"t.6.5.6.=X3XiXiXgX9Xw.L.0.6 D.ZX0X= P x n r.r.G.9 n zXaX6.N.=XdXbXgX8.w 6.U.D.9.x n rXhXvXaX= 9 J ..Q.e.} 7.s E.XXw } M >.X.v K ",
"f t ..7XoXb i.rX_.0 c }.i.{ aXvX#Xd v n [ | } m s wXyXb y ] x.R.;XaX, l b.D.OX8.B [ ] W.[.vX0X# + y / l 8 b K.oX+ s 9.8.U.I.4.x ",
"{ K ..7X>Xj s.qXi.v X. .H.bX0X<.J { } J <.z s 6.bX0X) w x  .e.B.N.mXw.X i 8.I.8.J #...@.9.Z.zXoX..r.).0X,X).dX,X] h q < - X.9.g ",
"Q :.< X.,Xu [ w.|.i.f z 2.vXe.  >.).G.; q @.9.mXoXq J X.&.6...S 9.wXCXI.o X.7.[ 7.@.J N.<.9.<XmXVXdXMX.X5.J.x.0XnXyXI.N.w.q q d ",
"| ..4.$Xr.! z ( Q.i.%.&.q.%XgX, * ( , h q , .XVXb , ..u.p...n l z.=XvXzXy H } K { } } 1.x. XzX$XR.9X>Xh k e.K.3.m.1XiXiXVXsXM %.",
"dXdXjX0Xu S n ;.s.L.~.s.&.} =X1X..:.XXlXbXU.0X0Xy ..&.w.i.f.%. .{ /.wX0Xy O.} ..! ` } ] O.=XzXM ^ OXa...^ >.N.Q h l 6.,XaXgXaXgX",
"x.B.wXaXh b <.d { e.0.d.s.v K 9XnXbXbX,X1XbXcX5.u | &.&.0.%.| ] ! H.oXzXb , [ x x A @.>.e.wX X; w 0.6XQ.%.z x 6./ N.sXsXT.x.@.9.",
"V X.aXVXa.6 6.| ` n ] &.&.J 8.vX).;.tX[.;X1X>XQ ..S | x ! ] z h u.d.7XgX$X# l @.6.e.<.<.b.0XJ.y { J J ^ p.&.t S <XnXI.b.K x [ C ",
"6.K #.E.iXn j p.| [ S H ' n 0XjX^ / v.z.:X<X<X! ! ] d ! d.u.n w ..p.Q._.vXoX9 9 _ / ^ ..S oXw.w.^ d l w 5.Q.M H 2Xa.! [ x.:.[ 4.",
"w.A S H wXR.1 L.} } ] x d B.mXw.v z. .| D.Y.jX0.% ] b ..%./ n x *.w.:.J <.cXdXi.:.X.5.%.'.K.y N.[ n r.....p.p.w.'.X.>.x  .W.0.i.",
"z a.a.1.V.dX4., > , Q c e.gX9.5.D.a ` i.F.D.wX,X> n ^ w...M S  .u.8.L p a.yXgXvX5XiX0X=XvXe.o :.<.&.6.t.:.^ X.a.7XM } K ^ rXOX .",
"] H.e.u H.vXcXU.U.+X0XaXaXcXd S  .z @.P.v.+.x.zX..; ] h ! ` { ..| ..! e.gXsXdXm H @.O.3.T.cXM , 8.%.] 3.8.:.K 9.9XJ <.H.6.@.D.X.",
"} @.c 8.vX,XX.0XwX>X[.;XT.bXr.; @.' | +.#.] +.sX#X  - ` n n ^ v ^ &.4..XdXvX8.e C Z ,.2.`.jX0X..M q q q 5.6.w 7.aX} | #X7.f J } ",
"] ! J.VXaXQ 6 8.@.K { K.E.>X+Xw 1.q.' ] o.@.y.!.cX'.# > @.n h ; , i X.,XgXx.d C K } ,.N.M.z.1XvX XXX'.G.j ~ 4.6.>Xe.l 9.K K 6.[ ",
"p R.mXoX{ c ] m m ] { ] J O.fXl 5 #.#.+.[ 7. ..X1XnXfXq = y j n 4.e.+XnXU.% K H K P } x.P L 0Xi.L.U.N.eX1X^ W / ;Xe.<.I  .] G.R.",
"N.mX'.. $ } &.^ z | 5.b d J &XXXi 6 $ S 7.#.= 5 Y..XeX9X8.9XfXdXzXdX2X9X,X; f x.3.O.3.U.P 2X#Xj 5.| x l K.cXw.).'.J O.<.OX6Xi.v ",
"mX'.@ e.h ; J ^ ] ..u.u.] S :.cXvX@XX.q c -.,Xe.! ;.P.fXgX[._.C.B.3.f 2.mXr.+ h.,.9.O.P O.cX:.n @.l l n ] 2.wXCX| % } U.i.~ | oX",
"8X>XoXZXsX= l } l m e.L.X...@X,X} `.wX+Xa.iXaX2XpXK.'.U.:.>.3.:.>.>.P R `.vXh O > c w w <X9X< X.b b l ! ` w } <XoX% { &.w.U.oX[.",
"!.8XiXoXsX.Xk 8...n J m { &.sX..q K S E.=X0X>X8 k.2X>.w.3.P <.>.L C.t.L m.sX5Xr. XXXoXqXeXaXj ) &.0.X.w l ] n G.nXG.c ).sX.XS A ",
"` -.#.=.Q.cXr.% l w h e c '.9Xu ] n K <.1.h.=X Xh 8.2.2.k.2.U U ] K.9.s H aXgX=X:X<X;Xz.#.sXG.i w.b M n !  .n  .K.gX,X;XX.5 ` +.",
"v D A A F.tXaX] 9 k < % y bXI.*.G.] <.N.1.S ` ;X,Xe d >.2.>.{ L O.P 8 b yX9Xn F o.D.y.r o.Y.dXj q l ^ J n n ^ c x.+Xl r `  .' S ",
"b.b.` v [ =.H.nXgXaX0X0X0XsX{ &.0.e.9.9.=.S ] R.jX8.& 2.k.<.L P 9.z S NX0Xw 0 A F F.-.V +.A.vXJ.* :.} b n J *.c =XW.E ` V ' ] u.",
"y.q.@.` S r n.0XH.-XeX1XyX,Xh K I 3.X.[ 8.S n <.h.sXb 8 P s s e s 8.cX,X0 V ' D ' o.o.F.v.j.Y.dXy : ] ..n  .5.@.sX..~ F.` 0  .~.",
" .v z  .' 5 .XN.8 ,.S.M.Z.,X6.^ 9.T.@.J K ] &.L } <X<Xs ^ b d M w.dXvX0 p ' ` -.+. .-.F.D.' F <XaXQ , $ % / %.N.sXc ` =.L.0.i.y.",
"b $ o ; q q.'.d x K >.E.M.5Xr._ OXB.C ` =.7.e...e.,XcXbXhXcXgXvXdX1XvXc i y.W.F.=.q.-.D.P.;.] 0XpXwX'.4.n j 1 0.sXM v ` L.q. .&.",
"v 6.,XJ.a.[.J x D m h.m.I sXI.k OXz.X. .F.6Xb.! H.cXyX].=XoXoX'.1XXXmXG.$ +.P.v.' =.-.=.-.a aXaXl x Y.1X1X9XXX8XfX! w ' o.l a =.",
"B.mXiX%Xc.B C j.R U e.v.'.wX0Xh W.L.0.6.8.&.i 5.9XgX6.I Z.,.x.z.R.qXpXoX; v.F.y.-.+.o.S 0 .XxXv `  .] ..b.`.=X;XaX| ~ D. .p +.y.",
"'.0Xw t I K K K K 1. Xc.:XsXcXX.j W.F...; u 4.}.mXN.x h.j.@.7.O.=.=X=XcX| *.~.F.D +.r 1 OXBX{ 7 ` s.&.0.Q.D V O.&X+X~ L.;.` ! ;.",
"B.aXy 7 K K H } ] 6.Z.h.l.3XwX0Xy , 1 , 6.nXmXcX'.m 2.O.7.H.D I N.I x.cX@Xo q.q.G 5 w @XmXr.y } l Q.OX&.b ..u.] 1.nXG.i  .A A ` ",
"e.jX| w K K S ,.,.,.,.I o.R.=XnXaXH.8.'.BX>XN.vXe.$ O.} K.'.K X.D.>.Y `.BXw . a u 8.0XgXsXq v w.4.=.i.6.d 0.s.` [ `.aX6 ; > = 9 ",
"wX,Xs '.N.S P k.M.$.L C K t.sX'.&XvXnXjXJ.s U =XgX9 7 @.1.#.H 6.!.m.I 1.cXqX5  .9XwX=X>XzXn , }.H.z v ] K | 6. .l ` dXwXJ.[.I.I.",
"9XfXn  .H.2.2.M.z.S K N.x.wX$Xe R [.oXoX>.d L C.nXw.> 9.S x o.#.i.i...+XgXdXhXaXXXb <.oXhXoX+ :.X.J @.M n =.w.] 9 I. X%X<X1XvXvX",
"1.sX,X@ K h.h.U h.O.C #.&XyXd N z J {.).t.T L l.&X,Xl K d & 7 h.C m oXNXe.2.V.} M 4.<.:.9.mX{ > [ ! =.I. .=. .j W.,Xl z 1.'.wXT.",
"O.].mX6.& `.h.K ,.K K } gX<.g R g ..t.C.t.N 8.3.m.gX! 3 J L.:.5 7 '.mX8.8 } ).C.x { s.} g T.1Xq Q *.) ^ % y ) oXiX[ z d <.K.N.#.",
"@.`..XzXc w f 4 u l n <Xw.e 3.J P :.N 3.3.M :.a.).nX..w nXVXcXK.e.nX'.w 3.H.N.9.} K :.} s ] mX;X5.J.U.e.8.4.sXU.4 R K z 6.x.H.<.",
"S e.dXhXpX&.S ] }.XXU.zXU.q e >.} <.x P 3.L s N a.zXgXaX9X8.E.aXmXiX..t.K.8.e.w.N e f m ` zX X#.=X`.S.eXxXkXjXU.> K I @.} f 2.K ",
"C O.R.,XgXzXdXdXI.O.E.Z.pXdXw.- e J M M M s m ).aX'.T.-Xo. .tX;XpX X> ).N.J <.M e ^ Q ( yXiXv D.P.@.F ~.@XS.-XgXy ..O.} @.S O.L ",
"| & e.0X0.w. XU.z n =.[ 1.&XdXN.{ :.8.I.XXr.,XNXK.t z S } P.E.^.>XgXj > ).m q 6.0XvX,X,XgXc 0 q.D.q.q.#.z V B.vX..J #.J 7.9.!.G.",
"J '.bX0.c Z =.P.] J z [ q.=.oXnX1X XK.R._.5X1X^ v A  .|  .c.2.c.:XwXzXh s w.9XfX'.m.V.-X0Xw.J.r.| f.P.z ,.] o.:X'.o & X.'.<.=.U.",
"2XhX .Q  .=.@.8. .@.m ] { X.aXr.y l d n J <.$Xb p o.#.h.O.#.[ t P.eX1XzXXXcX'.=.H 2.@XT.A.A.K.iXvX&.r c.E.$.w 3.vX Xw./ l <.J c.",
"dXw.O } 0. .X.%.X.K X.] z z.mX^ i 8.h b &./ +XaXy 6 A ] n 9 ; S ] ! =XgXgX9.m K C b. XK.1.[ ] oXMX'.o 5 l ' 7.bX<X%XzXeXG.c & x ",
"iXiXo u D.J @.1.{ D.b.> i K.MX8.<  X] l 0.%./ 8X.X| 9.).XXXXa.] ..9XaXX.O.,.J n X.S B.+Xe.&.=.<.'.zX>XU.q Q zXfXl r -.~.*X[.4.U.",
"Y.dXgX: w <.l w ; ! n H.cX0X0XdXy w b.] J >...Q ;XmX,X0X:X&XsX9XjX;X| K O.C K C z K B.U.w.i.z l ;XdXgXCX0XI.CX=.* Z v.7.a n.wX-X",
"D c.cX,XM { X.N.w.u J.dXx.%X<XsXiXo h q.6.| U.] $X.X0.D.A $.E.qXvXw.o v c.@.] } [ O.} @.=.} 8 #XpX'.,X9XvXvXU.7 A ' I P v.v.o.Z ",
"A g.^.wXvXU.-XkXcXeXeXH.z g.4XE.cX[.  ^ u.u.X.<.,Xb v.[ z #.Y.:X=XwX+X6 % U.q.0.U.S f P C 3 9.bX&.n.[.,XaXMXn ; b.@. .-.n.D. .A ",
"+.B I sXU.| ~.^.n.$.#.:XB.=.Y.A.oXZX... ! 2 i '.OXv V [ <.c.7.b.!.<XgXmX, Q @X] & y y.=.K C bX'.1 @.K 1.K.dX}.~ F.#.-.-.v.P.y.#.",
"+. .G.fXw +.].Y.K Z D #.n.E.~.j.`.gXvXj i G.aXsX@.X.7.9.1.B.6.S [ ^..XpXiX( Q j m | Q : 6 K.nX4.{ >.M +.o.c.cXe.! o.+.7.o.+. .o.",
"$ ;.bXK.t 1.+.#.h.o.K z n.%XY.Y H.fXbXdX0XvX>X[.! @.b.@.@.9.@.] D #.c.J aXmXXXyXmXsX_.8.J.zX'.w 0.@.} J { 1.pXU.1 z.+.o.+.+.5 o ",
"8.oXwXc c.F.q.j.g.g.D S F.Z.Y.' <X9X].<X9X7.C `...r S v.q.S ] @.0.O.x i.gXR.=XwXR.K.aXgXsXBX{ , G.@.] x } 1.`.fX| $ r 3 c 5.0.G.",
"gXsX0Xu S #.6.n.,.G $.#.o.Z V [.aXJ O.C.N.K H Y.a.w f 7.#.n o.x ] A e.VXJ.8 M.@.q N.#X8X<XvXe.~ q.n ] .... .7.<XsX=.6.e.P.;XdXvX",
"{ x.cXN.3 Z C $.x.c.o.z.C ; T.gXl ] 7.i.6.7.H.;X+XW A l ] o.[  .O.K fXoXw L >.m m t.J.8XwXzXX.c m S <.w.=.] J [ ;XmX0X>X/.M.K.M.",
"M Z =XJ.0 D D O.Z.Y.I K ] ,XVXw.l <.b.} [ N.e.aX.X_ D.] C V q.~.z.K.zX! n O.K b | X.H.0XE.aXM 8 ] 8.e.6.6.6.v S zX X6 { } 8.8.[ ",
"J x ,Xa.a $.C O.B.o.O.<.,XmX6.6.N.8.9.J K H N.gX| c D.F.| n Q.W.X.dXK.; <.} ] |  .l L f { 9X] @.7.1.b.[ ] ..` ,XZXQ > <.:.>.<.} ",
"K >.>XJ.w j.Y D.!.D.y.,XgX8.r } 8.U..XK K 2./.gXh J ,.0.~.G.q.a R.cXm w J 8.6.z } n J { 0XoXc 8.@.6.6.] | d K.mXK.& ^ G.8.J m } ",
"{ K [.oX9 K #.[ D.j.H.lX0X6 S z N.U.G.K [ m.h.gXJ.= D 7.n.w q XXgXgX^ > @.J.{ d X.<.OXgXmXG.* | i.6.J n : w.NX'.h n 8.t.} J N } ",
"O.z N.sX] `  .` w I 0XaXdX! 8 ] N.N.J.P ..G.z.T.mX] $ 7.p h $XsX`.dXr.+ :.4.n X.J.4.q.=XiXoX; c 6.J ` ] 6.aXcX^ ( r.9.>.x M x { "
};
