/* XPM */
static char *_610352700887[] = {
/* columns rows colors chars-per-pixel */
"64 64 256 2 ",
"   c #77361C",
".  c #722D14",
"X  c #783D24",
"o  c #592D1E",
"O  c #57493A",
"+  c #524636",
"@  c #68442E",
"#  c #78452C",
"$  c #694B38",
"%  c #794C35",
"&  c #69533C",
"*  c #79533A",
"=  c #5A594D",
"-  c #665846",
";  c #775A46",
":  c #6A5D54",
">  c #696556",
",  c #796A57",
"<  c #736751",
"1  c #7B7363",
"2  c #7D7A6D",
"3  c #767569",
"4  c #7C7D72",
"5  c #716F64",
"6  c #5C6459",
"7  c #873A1B",
"8  c #913A18",
"9  c #B73C17",
"0  c #8B3E20",
"q  c #C23E17",
"w  c #96451D",
"e  c #A9491C",
"r  c #B8471B",
"t  c #BF551F",
"y  c #894728",
"u  c #964927",
"i  c #9A532C",
"p  c #87573A",
"a  c #995533",
"s  c #875130",
"d  c #A64C23",
"f  c #BB4B25",
"g  c #A9542A",
"h  c #B55325",
"j  c #BB5423",
"k  c #BA5A29",
"l  c #A75933",
"z  c #B85833",
"x  c #B96539",
"c  c #AF6435",
"v  c #C84A1B",
"b  c #D44E1C",
"n  c #C4521D",
"m  c #D4511D",
"M  c #E2591D",
"N  c #C34C24",
"B  c #C84C25",
"V  c #CD5425",
"C  c #CB552B",
"Z  c #C25B2B",
"A  c #CD5B2C",
"S  c #C65727",
"D  c #D35524",
"F  c #D45B25",
"G  c #DB5B25",
"H  c #D35C2B",
"J  c #DA5D2B",
"K  c #D55628",
"L  c #C55C33",
"P  c #CB5D33",
"I  c #C75D39",
"U  c #D25E32",
"Y  c #D95F34",
"T  c #D14E22",
"R  c #E45E26",
"E  c #CA632C",
"W  c #D4622D",
"Q  c #DC632C",
"!  c #DC6A2E",
"~  c #DC6429",
"^  c #CD6235",
"/  c #CC643B",
"(  c #C6683A",
")  c #D56333",
"_  c #DB6432",
"`  c #DC6B35",
"'  c #D2653A",
"]  c #DB663A",
"[  c #D56B3B",
"{  c #DC6B3B",
"}  c #D46B34",
"|  c #DC723C",
" . c #D9713A",
".. c #C87138",
"X. c #E3652C",
"o. c #E46A2E",
"O. c #E86728",
"+. c #EE722E",
"@. c #E16532",
"#. c #E36C34",
"$. c #EA6D32",
"%. c #E36D3A",
"&. c #E96E3A",
"*. c #E37235",
"=. c #EA7335",
"-. c #E3743B",
";. c #EA753B",
":. c #E57A3D",
">. c #EC7B3C",
",. c #F37D3C",
"<. c #F47634",
"1. c #F16E32",
"2. c #855B44",
"3. c #97694B",
"4. c #846A56",
"5. c #976B53",
"6. c #8A725C",
"7. c #98745B",
"8. c #88644C",
"9. c #AB694A",
"0. c #BA6C47",
"q. c #A8755A",
"w. c #B87758",
"e. c #AC6D50",
"r. c #847D6B",
"t. c #877865",
"y. c #987B66",
"u. c #877D72",
"i. c #A67C66",
"p. c #B37C62",
"a. c #BA7D62",
"s. c #A25D40",
"d. c #CC6C43",
"f. c #C76945",
"g. c #D36C43",
"h. c #DA6D41",
"j. c #D56844",
"k. c #CB734B",
"l. c #CA764B",
"z. c #D47344",
"x. c #DC7443",
"c. c #DC7A45",
"v. c #D5744C",
"b. c #DB754A",
"n. c #D67B4C",
"m. c #DC7A4C",
"M. c #D47847",
"N. c #C47C5B",
"B. c #C87755",
"V. c #D37C53",
"C. c #DB7C53",
"Z. c #D57956",
"A. c #C86E51",
"S. c #E27543",
"D. c #E47B43",
"F. c #EB7B43",
"G. c #E47C4B",
"H. c #EA7D4A",
"J. c #E67647",
"K. c #F27B43",
"L. c #E37D53",
"P. c #E87E55",
"I. c #E16D41",
"U. c #C87D64",
"Y. c #D87D60",
"T. c #7E8378",
"R. c #F8823C",
"E. c #EC813D",
"W. c #98826C",
"Q. c #8A8679",
"!. c #9B8C7C",
"~. c #968777",
"^. c #8D8671",
"/. c #AC836B",
"(. c #A6836A",
"). c #B78569",
"_. c #A98A77",
"`. c #B58C74",
"'. c #BC8C73",
"]. c #B78A76",
"[. c #AC937D",
"{. c #A4917C",
"}. c #B89379",
"|. c #B2805D",
" X c #CA825C",
".X c #D4825D",
"XX c #DB835C",
"oX c #D98455",
"OX c #DD8550",
"+X c #EC8245",
"@X c #E4834C",
"#X c #EB834B",
"$X c #EC874B",
"%X c #F38444",
"&X c #F38A45",
"*X c #F2854A",
"=X c #F38A4B",
"-X c #FB8948",
";X c #E48353",
":X c #EB8453",
">X c #E2835A",
",X c #EC8B5A",
"<X c #E88958",
"1X c #F28B53",
"2X c #F48857",
"3X c #F89657",
"4X c #F49452",
"5X c #C48363",
"6X c #CA8463",
"7X c #C58C6D",
"8X c #CA896A",
"9X c #D78965",
"0X c #DA936C",
"qX c #C98C72",
"wX c #C99578",
"eX c #D69676",
"rX c #CF8E72",
"tX c #E38B63",
"yX c #E88C65",
"uX c #E69469",
"iX c #F49665",
"pX c #E79875",
"aX c #ED936C",
"sX c #F8AA73",
"dX c #E9A16C",
"fX c #8B8D82",
"gX c #9C9383",
"hX c #99968A",
"jX c #929389",
"kX c #A49583",
"lX c #A99A89",
"zX c #B99987",
"xX c #A59E92",
"cX c #B99F90",
"vX c #BBA28B",
"bX c #A9A497",
"nX c #B8A796",
"mX c #ACA18F",
"MX c #B2ADA2",
"NX c #BAB4A7",
"BX c #9EA093",
"VX c #C79C84",
"CX c #D69A80",
"ZX c #CCA38A",
"AX c #C7A288",
"SX c #D6A588",
"DX c #C5AC98",
"FX c #D4AE96",
"GX c #E8AB8C",
"HX c #E7B598",
"JX c #F1AF8C",
"KX c #C6B6A6",
"LX c #CFB8A6",
"PX c #E99980",
"IX c #BFC0B2",
"UX c #D2C3B3",
/* pixels */
")./.e.w./.i.q.7.i.t.q.9X Xx  XeX0X0XwXdX[.}.eX8X X X9X XN.0X0XVXkXeXCXqXU.9X6X9X9XtXp._.pX0X9X9XZ.Z.k.Z.9XrXkXf.f.0.f.I z z L z ",
"f r A L f f N j.d.7.@X=XE.R.&X&X4X3XsX3X X..*.+XE.>.=XE.#.D.F.6XzXU.U.N.A.j.] @.J.P.U.w.F.G.h.h.I H h.' ' C.zXv H H I B 9 f N C ",
"z 9 f C f f S g.j._.oX$X&X&X&X4X4X3XsXsX X..E.+X>.-.+X<.K.H.G.zXzXU.Y.Z.Z.b.b.L.Y.P.7Xa.:XC.tXb./ P g.g.j.Z.kXV b.g.d.L B B I I ",
"L f 9 f L f C ^ f.VX<X1XE.&XE.4X3XsXsXsX7X XE.@X=.+X+X` x g %.VXCXI.J.S.S.v.C.J.Z.L.5Xa.:XP.Z.b.j.P L Z.v.U.zXV Z./ L j.I C I I ",
"Y B v B K ] K U ( }.4X4XR.R.R.3XsX3XsXsX0XB.%X%XR.*X%X>.;XyX-XpX8X1.I.&.K.J.L.2X2X2XU.w.2XH.F.h.%.Y U L.h.Z.zXR P.C Y j.K K T Y ",
"8 . . . . 0 7 7   7.i w w e g k k c x x w.c n Z j k E ) g l u 7.8.7 y y u y y X X 7 7.y.7 0 y 7   X X X X 5.u.  2.X . . o o o o ",
"5 5 3 5 , > 2 2 Q.MXT.3 T.1 T.< 3 Q.Q.2 bXhX1 u.Q.2 t.y.~.~.~.mXbXgXkXgXlXjXhXjXgXu.nXlX6.u.~.gX3 gXkXkX!.mXcXQ._.!.u.: 4.4.4.6.",
"g.d.V.8XkXx.D.S.G.oX9XXX@XOX&X(. XXXXXuX>X9X9XuXiXtXi.oX4X1X:X>XL.P.L.P.P._.9XaX>XP.v.h.P.tXb.C.'.K ] ] x.j.' G.P.I.P.w.Y &.Y Y ",
"v v V L W.W ! G G / k.j.] *.;.q.' ` Q Q *.] %.x.J.b.i.b.%.{ S.S.] I.h.S.;Xy.v.yXI.x.%.S.' b.J.k.w.C U _ P { ` -.P.Y ' 3.N { ] A ",
"f ) ( 0._.[ -.G X.[ g.{ b.D.D.zXn.{ [ -.| { ` n.C.rXi.C.S.-.S.%.&.%._ S.XX].C.uXJ.*.J.{ b.L.Z.Z.a.H ] ) Q h.G.:XyXJ.' q.C { [ P ",
"V ' ^ f.W.` ` ! ~ _ ) ` n.| ,XKXM.-.S.F.` ) ] S.L.rXi.tXyXH.&.%.&.@.#.-.<XwXG.yXF.F.J.&.#X:XJ.Z.B.J _ #.X.#.:.+X:XF.g.).J ` U _ ",
"G H F ( (.Q O.M M G _ _ { X.<XMX( #.F #._ V H _ A.9.q.H.,XK.$.o.R R X.Q c.].) ) W S V D A A _ ..9.r S D V V m F F ~ ) q.9 v 9 9 ",
"@ @ @ & bX; p * p % % $ $ % 4.bX, $ ; $ @ O - - = 5 MX; % * p % * * 2.; 8.xX- - - O & - - : - ^.xXu.3 1 2 , < t.t.4.4.Q.> : 5 1 ",
"`.`./.).SXwXwXZXFX{.kXAXnXDXFXUXUXLXLXLXlX].wXSXCXSXFXcXzXzXDXbXwXSXZXCXwXSXZXwXZXFX[.'.pXeXeXSXGXHXSXGXGXAXvXSXZXVX}.wX7X'.'.CX",
"o.` ` o.;.,XiX3X4X9.M.-X%X,.;.*.*.%XR.R.9Xk.@.S.J.Y Y J.H.] 1.).z.=X3XF.#.%.H.;.*.&.5XOXR.=.<.>.E.;.%X3X&XXX0.K j.j.C N C A B C ",
"c.z.^ ` F.pXJXpX4X5Xl.E.>.-.*.*.>.=X&XR.8XA.D.L.g.j.j.I.x.[ @.7XoX+X2X*X>.S.D.c.D.-.rXuX&X=X#X:.+X$X3XsXiX9XU._ j.I P P C L ' L ",
"+X} [ | -.iXpXJX3X)...=.+XD.-.-.#X$X&XR.0XB.| oXh.' ] { U x.:.'.n.*X:X>.#.` #.c.@XE.7X<X-XE.>.E.:.$X3XsXsXuXw.U / ) A H N U j.L ",
"%X*.D.+XyXJXJXJX4X7X( <.%X*X;.>.%X%XR.R.9Xl.F.,XH.@.@.%.;.;.>.wX@X-X-X%X<.1.<.>.$XR.eXuXR.-X,.R.R.R.4XsXsX0X0.$.#.J J Q J K @.] ",
"E n t j A.U.rXV.x 2.@ 8 i l j e h r r n e.p u u d d e e e f h kXl d z h h t h j g j |.0.E E j n t t E ....e.X 8 7 u 7 7 7 7 u 8 ",
"+ O O = + + = + + T.fX> = = > 6 = 5 2 1 xXBX3 Q.fXxXhXfXjXhXxXUXhXQ.fXjXQ.2 3 5 > > gXxXgXhXgXQ.2 2 T.Q.3 fXbXfXQ.fX4 > 2 4 2 Q.",
"N.N.N..X5.q.0X6XrXpXqXU.Y.6X9Xy.'.uXaXuXpX0XeXpXaX<XwXVXaXpXyXC.tXZ.9X9XyXwXeXuX0XuX0XC.Z.XXXXuXAX0XaXpXU.6X9XZ.Z.P.A.q./ I I Y ",
"V G #.X.0.f.$._ _ U L P J ] b.p.x @.+X@Xc.XXXXL.D.F.).w.K.S.Y @.Q @.R Y <.8Xz.+X+X:.G.W H ) W S.q.} S.j.j.v.j.C P I.j.9.B N B B ",
"H ) z._ 5XB.$.{ ' I / / ' ' ' ].B.D.<Xn.x.>XH.H.D.D.w.).*XJ.%.{ &.@._ ] *.eXn.<X;XD.D.S.` ` { C.wXm.g.h.j.f.j.U j.I.v.p.C I N N ",
"A S B.) w.A.=.) U L 0.^ ) { Y zXV.D.OX;XD.n.@XF.z./ e.q.*XJ.@.%.] @.@.@.| 7XV.<X;X{ *.-.| _ x.;XqXG.S.Y ] ' P I j.J.A.p.Y C f B ",
"m b { R 0.B.1.@.U J U f.@.%.%.a.l.>.=X,.F.P.K.o.>.+.w.i.K.,.X.H J D m ~ O.8Xm.R.*X$.O.K.+.M %.&.5X[ D r r N N N C P z q.q v 9 q ",
"  X % # , 2.y y y X X X X u y u./.c c l s y s % # % MXr.@ & $ & & 4.4.; ; jX7.9.3.3.s s p p 8.5.lXt.6.1 , O $ > : : fXhX2.8.2.$ ",
"~.{.lX[.AXy.8., 6.t.> 1 u.u.u.DXVX_.`._.u.r._.`./.`.eXwXq.|.).'.kXSXVXVXDXHXZXZXZXFXvX{.wXVXVXVXeXSXSXGXGXvX`.9X5X8X0XrXrXrXU.8X",
"[ { @XJ.U U $.k.A.j.5.Z.P.U.A.' ;.&.&.#.tXZX,.;.=.,.=.=.$.=.<.@Xw.&._ X.h.` -.D.D.;.>XN.1.&.L.Y.' U C J X.8Xf.G D K G b b b b K ",
"Z [ G.x.x.^ } k.d.f.i.6XG.j.j.j.J.J.%.-.;X}.{ ` *.o.*.:.=.@.| <XwXJ.{ %.I.%.S.Z.G.G.0X8XK.F.C.9XZ.g.' ' { qXB.Q U P C C V K L L ",
"(  .D.;X>Xd.[ k.d.d.].U.yXJ.Y P { ` %.[ U._.' I  .*.` o.*.*.:.>XSXS.I.%.%.Z.J.Z.x.G.0XrXK.H.b.Y.m.' } P ` rXB.W U U K K D V P z ",
"^ } D.@XOXG.G.m.G.>.'.Z.2XP.%.Y %.%.&.Z.a.i.j.I *.+.o.O.O.<.<.G.qX;.1.,.1.P.tXyXH.2XtXU.K.K.@.I.L.I.] ) =.rXA.R G K M T b G G J ",
"e S k ^ j e h j r e 5.a g s.d a d g u p ; ~.u 7 w h e w u g i 9.y.d d d d a l s.l i e.5.g g z h l l g a g i.q.u u 0 u 8 w u u u ",
", : < < , 2 3 1 , 5 bXQ.5 3 T.> Q.hXhXu.fXnX5 , 1 u.= T.BXBXBXNXNX1 1 2 Q., 6.^.t.t.!.NXgXmXbXNXfXxXbXbXu.vXDXlXcXlXxXQ.!.gXlXxX",
"C.n.C.OXi.VXrXwXeX9XZ.Z..XZ.9X_.8X=XJ.n.B.0.n.b.A.>X{.p.6XXXV.Z.b.#X:X<XyX}.d.G.H.+X#X;X:X:X$X>X'.<XiXpXPXJ.Q U ` ` J.i.' S.%.%.",
"x.Q Q J 5.9.] v.[ K H J H [ h.cXOX=.*.| _ J #.| c.@XDXN.n.c.z.c.) ~ J D.D.wXn.@X` =.*.-.[ | H.S.).| x.tXGXL.Q J X.` [ i.C Q D v ",
" Xz.H J ].w.v.XX{ U h.h._ x.m.cXl.D.-.| ` X.#.c.n.v.[.6X2XD.| z.x.S.] J.;X}.V.H.` *.*.m.z.z.L.#XwXS.D.,XpXtX| ! ` |  ._.A Q K N ",
"5XN.g.g.VXw.d.b.h.] P.%.Q { h.zXl.+Xc.| ~ ~ | | d.v.vXwX,X:.-.D.c.D.#.F.,X}.;XF.+.=.=.-.*.D.H.+XHXm.$X&X,XaXH.,.=.Q _ ].J K G K ",
"f.d.A.U.zXw.] h.Y %.S.K v W ) _.f.*.| X.~ ~ W E z x _.w.oXE Z k j S k ( M.{.l r r r h n S S k x AX .} m ` n.P n v n A i.j r 9 r ",
"@ @ O $ xX7.p 2.8.8.& & ; , t.nX, $ & ; ; - < < - 1 IXxX^.< > - > ^.- - ^.NX2 , 1 r.1 2 ^.^.^.!.NX{.lX{.kX!.Q.~.gX~.6.lX, ; $ - ",
"s.9.9.U.8XB.w. X9XN.7.oX.XXX9X0XoX X.X0X|./.9X XoXuXuXuXuXdX0X).q.>Xv.C.oXuXuXXX,X:X). XaXtXuXpXpXpXdXuX;XVXrX:XC.S.b.h.` [ { v.",
"K K D A.f./ A.U _ [ 0.O.X.~ Q ! *.o.=.$.Z. XO.` ` *.:.*.` *.+. Xe.$.` ` { m.h.H ! _ 0.( =.*.*.@XG.c.c. .Q '.f.K G H H H F F Q G ",
") P ( / L f.N.d.( f.w.` ` !  .z.| @Xx.| rXrX=.| D.E.D.>.-.z.*.9XrX@.{ { z.z.h.g.[ _ 5Xl.=.:.@X@Xz.@X@XM.| wXA.Q ) P A ) J D H ^ ",
"P ' ^ ^ ( ^ A.d.' k.N.~ ` `  .| } | | c.0X7X=.| E.E.:.E.*.` *.0X8Xo.*.D.x.| ` ` { `  Xl.*.*.@X;Xc.c.@X .| wXA.@.Q H V E ! ~ W [ ",
"K H F A ' ] J _ X.d.0.R O.R O.o.o.O.$.@.oX8XO.o.O.O.+.+.O.o.+.tX).b V v S A ~ ~ S V w.z.M X.o.D.D.o.o.X.X.wX/ b m b b b m m D [ ",
"& % $ $ X % * p * 7.~.p p 2.p s s p p p W.{.3.3.q.q.3.5.|.3.3.[.UXhXgXgX~.6.$ + 1 ^.nXW.5.7.i.p.3.2.5.5.y.nXkXi.7.5.4.; ; 8., 4.",
"`.`./.(.u.y./.`.}.ZXFXZXwXVXnXQ.{.}./.'.eXFXSXwXFXSXnXDXFXwXwXSXHXHXGXGXGXNXw.0.9XuXpX9X X0X0XeX^.(.8X8XqXeXrXrX8X6X6XlXp.B.U.U.",
"C K A D /.H R G X.Q W Q _ ` %.DXOXO.+.$.=.| | | ` O.5X..O.*.*.:.F.-.:.F.=.ZXm.#.@.o.o.Q ~ ~ Q #.cXB.J [ ' U B V V D D a.v D P H ",
"f./ ' L p.L F H ' ' [ [ ) [ } nX X~ *. .| | *.*.| *.wXOX*.E.E. .@XD.,X0XD.`.f.#.-.c.-.{ ) #.x.{ DX6X' d.k.' U L P A ) ).H [ g.P ",
"^ ' d.L p.L A W ^ ^ W } ) } { nXl.W  . .*.|  .*. .*.wXOXE.E.E.E.c.z.pX0X;.`.( *.| *.| ` _ { | h.KX5X' A.d.U P U P H U q.U [ ' A ",
"] _ { K }.H J J O.~ G X.#.%.@.vXoXO.o.+.+.*.+.! O.o.eX@XR.E.=.E.;.J.uX@X$.].' O.o.#.o.X.X.$.%.*.nXU.Y ' U K C Y J K J e.b ] _ G ",
"y s s s !.s 8 u y i u y u u s MXe.d g g g e g g c p !.3.l a a s s * * * @ mX4.* * p * s p % # @ bXt.@ 2.% X # # # # % !.% s #   ",
"y.y.W.lXAX7.7.y.7.q., , t.y.[.UXvX(.7.i._.^.!.mXNXnXNXvX[.[.[.[.u.i.`././.FXZX'.'.).W.kX/.q.5.q.VX'.`.VX}.^.gX[._.i.(.}.[._.y.6.",
"Y J o.:.*.,.X.b o.1.).S.yXP.K.2X1X4X%X>.+X8X;.F.#XuXGXaXK.K.R.XXN.:XL.@.%.G.J.=.=.O.6Xl.R O.%.;.%.$.$.o.$.w.P Q X.X.~ F J %.{ J ",
"{ -.:.:.c.*.*.=.=.$.)..XtX>X>.-.$X$X$X#XOX8XO.*.E.+X<X1X$X>.*.9X8XL.G.-.x.b.S.D.:.! 5XoXo.` |  .*.F.-.*.-.w.L Q ` o.! ~ ` z.g.A ",
"S.F.:.*.} { | :.>.*.zX9XuXG.D.G.OX>X<X;X<XwXo.%X+X$X+X$X@X+XF.9XrXL.| %.{ [ m.-.:.{ 6XoX=.:.| | @XF.D.-.-.w.( ` ` #.Q ! Q P f.L ",
"*.,.>.o.` *.*.>.%X=.wXaX2X%XR.<.&XiXiX&X4X'.+.%X=X4X-X=X%X,.<.tXqXJ.;.#.#.%.;.F.>.=.N.oXR.*.:.E.%XK.K.R.,.w.^ o.X.$.$.X.F _ %.{ ",
"k S S t f h f S Z k i.0.x E E t E x 0.x B.}.E ! } } W ( E x k w.i.g l z g g l l a i i.q.c s.i l i i i i i 7.i g h k d d d d d g ",
"1 t.< - = < > < , t.lX6.4.7.7.T.1 y.t.t.{.DX5.7.W.7.< ^.^.(.W.vXKX{.[.[.{.t.7.`.}.}.DXLXDXnXvX(.t.W.7.7.; (.6.6.W.~.t.r.!._., ; ",
"OX| { x p j.B.U.9XtX:X#X:.:.@XbXz.2X0XyXE.=X*XR.E.E.`.V.H.H.1XiX2XG.J.P.:XVX@X%X-X4X4X4X3X&XE.<.w.| F.;.=.;.*.;.o.@.z.3.~ _ @._ ",
"` *.! L w.Q *.D.G.;XG.:.=.:.n.nXI.2XpXpX$X1X#X+X&XE.AXM.=.-.D.@X@XS.| x.C.zXG.=X=X$X%X=X&XE.*. .5.' :.D.| *.:.-.! G ..q.D ! ` W ",
":.+X` x /.} x.D.@X;X| S.-.+XoXMX .D.,XpX:X&X+X=X:X:XVXM.*.:.D.:.D.m.c.z.C.zXm.=X4X3X4X$X&XE.|  .7.' -.S.| E.@X:.*.! z.q.) } ! A ",
";.:.` z.wX` D.*.F.+XF.>.$X1X;XNX| >.+X<X=X+X&X-X3XiXAXn.R.&X+X*X,.;.F.D.F.).+X%X-X3X3XE.R.R.+.-.i.j.,.>.=.&X>.E.<.=.M.q.o.*.! H ",
"~ W n z /.n E ~ W ^ E E ..( x nX( ! } l. ... . .[ ( [.c g g k h h g g l 9.(.9.x x x c x ..k h k _.l k j h k t t Z E ..5.e n t t ",
"* ; & 1 lX4.W.6., , , , , > r.KX^.t., < < , 4., - = MXu.> 3 3 ^.5 t.!.t.r.nX{.{.{.lX~.^.gXxXr.t.mXhXgXQ.!.^.1 ^.1 < , hX- - - - "
};
