/* XPM */
static char *_610686813908[] = {
/* columns rows colors chars-per-pixel */
"64 64 132 2 ",
"   c #020402",
".  c #0A0A07",
"X  c #070709",
"o  c #060908",
"O  c #0C0D0B",
"+  c #0E100D",
"@  c #12110E",
"#  c #0E0F11",
"$  c #110F10",
"%  c #0F1012",
"&  c #131412",
"*  c #181615",
"=  c #161915",
"-  c #191A16",
";  c #171719",
":  c #191718",
">  c #161A18",
",  c #1C1D1A",
"<  c #211F1C",
"1  c #1E211D",
"2  c #22221E",
"3  c #1E1E20",
"4  c #211F20",
"5  c #1F2322",
"6  c #242422",
"7  c #2A2624",
"8  c #262924",
"9  c #2A2A26",
"0  c #262729",
"q  c #272B28",
"w  c #2C2D2A",
"e  c #302E2B",
"r  c #2E302C",
"t  c #32322E",
"y  c #2E2F31",
"u  c #2F3430",
"i  c #353432",
"p  c #393633",
"a  c #363833",
"s  c #3A3A35",
"d  c #363A39",
"f  c #3D3D3A",
"g  c #413C36",
"h  c #413E3B",
"j  c #3F403C",
"k  c #43423D",
"l  c #49463F",
"z  c #454541",
"x  c #494643",
"c  c #474842",
"v  c #4B4A45",
"b  c #4D4C4A",
"n  c #514E4A",
"m  c #4F5049",
"M  c #54524D",
"N  c #59564F",
"B  c #59594F",
"V  c #565551",
"C  c #595652",
"Z  c #575853",
"A  c #5C5B55",
"S  c #5E5E59",
"D  c #605C56",
"F  c #625E5A",
"G  c #5E6055",
"H  c #5F605A",
"J  c #64625D",
"K  c #6A645E",
"L  c #666561",
"P  c #6A6662",
"I  c #6C6A64",
"U  c #6E6D69",
"Y  c #716C66",
"T  c #726E6A",
"R  c #727167",
"E  c #75726C",
"W  c #7A756E",
"Q  c #7D7A6F",
"!  c #767571",
"~  c #7B7571",
"^  c #7D7A73",
"/  c #7F7D79",
"(  c #817D75",
")  c #837E79",
"_  c #848177",
"`  c #85827B",
"'  c #8A857D",
"]  c #8B897F",
"[  c #868580",
"{  c #8B8681",
"}  c #8D8A83",
"|  c #8F8E89",
" . c #928D85",
".. c #988F86",
"X. c #938E89",
"o. c #998F8B",
"O. c #949186",
"+. c #96938A",
"@. c #9A958C",
"#. c #97988B",
"$. c #9B998E",
"%. c #9C9691",
"&. c #9E9A92",
"*. c #A0978E",
"=. c #A0998F",
"-. c #A29794",
";. c #A29D94",
":. c #A89F96",
">. c #A39E98",
",. c #A4A196",
"<. c #A9A396",
"1. c #A6A49A",
"2. c #A9A59C",
"3. c #ABA99E",
"4. c #ABA7A0",
"5. c #ADAAA1",
"6. c #B1ADA3",
"7. c #B4B1A6",
"8. c #B8B1A6",
"9. c #B6B3A9",
"0. c #B9B6AB",
"q. c #BCB9AD",
"w. c #BEBBB1",
"e. c #C0BAAF",
"r. c #C1BDB3",
"t. c #C4C1B5",
"y. c #C6C3BA",
"u. c #CAC4BA",
"i. c #CECABF",
"p. c #D3D0C7",
"a. c #D4D4C8",
"s. c #E4E0D4",
/* pixels */
"t w 1 m &.5.1.6.1.i f f t { 2.2.1.1.3.2.E 1 O E ;.+.O.;.1.5.4.$.$.' e ( x c *.X.o.@.#.&.V O V 2.5.1.1.1.6.^ 8 j c i f f i 7 > 6 ",
"k i H 5.7.1.1.,.w. .= 9 ) 5.6.1.2.1.1.4.q.} 6 k -.#.| O.+.&.$.O.1.J w r.9.9 k  .@.@.@.%.b 1 C %.&.5.4.1.2.w.J 6 a J &.,.;.&.@.n ",
"w L 9.7.1.1.1.3.1.3.c t { #.,.3.1.1.1.1.5.0.) , ~ #.#.+.O.+.@.,.~ , b 6.#.t   p A L Y S 1 1 b  .O.&.1.5.1.6.6.s 1 ` 6.3.5.0.e.b ",
"U 7.6.1.1.2.3.1.;.@.x 8 F $.+.,.4.3.3.1.1.2.A 1 n +.{ O.&.1.' z ; , s n 7 s F k 0 , , 6 M E r E #.+.+.,.1.5.r.Q @ I ;.+.$.3.b - ",
"3.6.2.3.3.1.>.=.,.v & 2 t ' @.+.&.1.,.@.1.R 6 t & D $.X.W h 2 7 A ` v O v 6.0.6.1.] C 8 ,.i.6 i &.O.o.+.+.@.1.;.t h #.=.1.V O Y ",
"=.$.$.$.&.$.#.-.n O L F @ a o.+.O.+.O.1.} 1 7 E h & v p 7 l ^ 2.0.u.&., I 0.4.3.5.w.2.7 K M O X M @. . .+.+.O.<.A : ~ 2.M   U 5.",
" . .} O.}  .@.b   I t.u.^ o f $. .o.>.+., , { y.;.r > 6 ' 0.0.6.1.7.+.9 E 6.3.2.1.0. .w = 7 +.A   k +.} ' } O.>.n O f b * J -. .",
" .{ { {  .+.V   S r.3.3.r.~   b +.*.+.9 O  .e.5.q.A - K 6.6.2.1.2.0. .w ( ;.2.2.2.q.I = u +.u.q.E o i { o.X.+.b & N s O C 1.+.} ",
"I E ~ ~ W b O x 0.6.1.1.2.r.L . A ^ y @ } w.2.1.9.^ , E &.1.6.3.1.2.Q w ' %.+.&.5.6.k O ^ q.1.3.r.} = 8 I U 9 7 ' r.3.s t M A P ",
"= 1 4 r w 7 i @.0.>.>.2.1.5.0.v = 9 & ^ r.3.1.1.7.} 6 R -.@.;.$.;.;.v w [ +.@.X.,.{ O x 9.5.1.1.2.q.O.1 2 2 k 1.r.8.1.l , @ & & ",
"/ Q S 9 k i F 5.2.2.2.1.1.1.9.@.i 0 J 0.3.1.1.1.6.&.w P ,.+.$.&.^ g 2 a ~ $. .@.<.k ; O.7.4.1.1.1.1.t.Q 2 s >.6.{ A 2 i M S R ^ ",
"0.q.r.J 7 d W ;.1.3.1.1.2.1.2.8.b 1 +.9.1.1.2.1.3.3.w A 5.O.L i > 2 a 2 7 T  .;.Y   J 1.@.2.3.1.1.1.3.6.j e L v e 1 C +.,.1.0.q.",
"1.1.6.6.g - Y %.$.3.1.1.1.1.5.>.s k &.1.4.1.1.1.5.3.p t M w 9 v ^ ;.&.( h O s M , w o.$. .@.3.2.<.1.5.1.c , w A a w { -.+.+.@.3.",
"1.3.3.0. .$ b @.O.;.5.1.2.4.1.+.w V ,.;.5.4.1.1.3.$.b , 6 J ;.q.0.6.6.r.0.^ 1 , r L %.+.+.} $.3.5.3.>.$.r a ,.p.( , l _ #.#.o.$.",
"+.$.>.2.r.M * _ #.+.;.3.5.1.;.` 6 Y ;.+.1.2.4.5.$.+.f 6 ' 5.5.3.1.1.2.1.5.t._ w i ^ } o.#.+.O.+.,.#.@.{ w ' t.5.<.b q 1 n { &.+.",
"@.O.+.%.3.1.- v -.+.O.#.&.+.<.I 1 ' &.| &.5.1.+.#.} 6 c ;.+.;.2.2.2.1.1.2.6.+.i 6 K o.) @.+.+.| } O.,.! t ,.5.2.9.M 2 b w 1 C ' ",
"C ( $.$. .5.I , ` X.#.O.O.+.1.n 6 O.-.O.+.&.O. .;.` , I ;.X.$.3.1.1.1.1.3.9.Y , 9 d { ' ` @.+.+.+.@.3.C t 5.6.6.>.1 c t.5.M - j ",
"- 9 b E +.;.5.k x @.{ X.+.+.&.e f O. .#.+.O.O.@.1.I 8 ) +.+.@.2.2.2.1.1.5.5.l 2 n O g &._ ` O.+.O.+.;.i x 3.4.7.J ; &.0.q.5.j 8 ",
"x i & % 9 M O.( = W %.} X.>.~ & k %. .' o.+.#.;.;.f 6 ' { +.+.1.5.1.1.2.6.X.& J u.I   v &.} { o.+.@.P ; J 1.$.,.r l w.3.8.^ = p ",
"2.&.} E x 7 4 6 6 s U ! K C 9 9 i b T { +.-.+.W f 2 9 T X. .O.$.5.1.2.3.0.M 6 6.0.y.P   x ~ ^ Y D l 6 2 U ;.;.~ = ^ 3.,.,.9 e #.",
"3.6.0.q.0.1./ l r i r , - 7 r g r & % 9 n C i O = l 6 k X.' @.O.&.,.&.1.&.< Y r.,.5.r.m O i t = # 4 c s M O.@.t s 5.-.:.C = O.5.",
"1.1.1.1.2.6.q.w.R t i s ` &.&.+._ U B 8 X = 9 F +.6.E = !  .{ #.+.+.+.1.A 9 6.3.1.1.9.&.s i t U ! k r b i 9 7   t Y D M - J 2.@.",
"3.2.1.1.1.2.1.q.+.1 t +.1.&.7.6.9.0.7.<.E 6 x 0.r.0.t.f 7 +. .' { +.@.$.1 J r.1.1.1.3.>.x > U y.r.3.C i a j b b w O , 0 p $.&.+.",
"1.2.1.1.1.1.2.0.F . U ;.+.+.4.2.1.1.2.7.t.U 3 +.2.&.w.[ & x ( +.O.' =.C , %.3.2.2.2.9.^ > M 8.5.1.r.O.; A 9.w.7.1.^ f 9 F 1.+.O.",
"#.5.1.1.1.1.6.;.7 4 ) '  .$.1.1.1.1.1.1.6.9.w A 5.<.&.S 9 1 @ p K ' ~ > C <.,.3.1.3.6.s 7 ,.9.1.1.e.U - &.9.2.3.6.u.J - ! ;.+.+.",
"X.$.2.3.2.3.q.J , f E } { +.;.3.5.3.1.2.r.&.7 d ' I k 6 b ' ( k & , 9 9 ` =.#.5.5.6.W @ ! w.2.1.3.9.t s 0.3.1.1.2.9.A 8 )  .#.+.",
"+. .+.&.,.6.@.6 6 - A @.(  .+.$.&.,.2.q.} w 9 9 , % = t E q.r.q.O.k 5 f } ;.+.;.1.;.w a ,.1.5.5.6.' ; I 0.3.1.1.3.0.n i o.) { $.",
"+.| +.+.+.3.z & _ n 4  .' ) ..+.O.,.1.U % & k N ^ +.x O C >.,.5.r.0.J < b ;.&.+.2.J % J ,.#.1.&.3.C - { >.2.2.3.5.6.h k +.) (  .",
"} #.#...3.Y . ! i.0.7 m &.^ ) +.1.' a . i E $.9.9.w.7.s + ! 2.&.>.q.;.i 6 n %.5._ w u V 1.1.&.<. .2 g &.#.#.2.,.-.,.t j ,.' ( ) ",
"{  .@.3.X.O V r.2.r.^ @ ` ;.@._ b O 2 E 3.0.6.3.1.1.w.} # q  .;.1.+.j 6 r + h ! 9 o 6 9 I ! L B t 1 J 2.;.;.>.+./ J t 8 J { @.X.",
"T ( ' ) 6 i 7.6.1.3.q.a 9 I M 1 & S ;.6.7.1.1.1.1.1.5.1.x - x ~ M 1 9 S _ G ; , x ^ / r % , 1 % , w M _ E F l e - @ 9 2 = p x K ",
", , 7 6 4 X.9.1.1.4.8.^ ; 6 1 j ` ,.$.1.3.1.1.1.5.3.<.&.s i 1 > s I ,.9.q.t.A . W s.' , I } { ` E l r t = > 6 t v A J S s e 9 - ",
"^ I l 2 F >.3.4.3.;.1.' t b i ` ..{ @.>.3.3.3.3.1.$.1.I & i m ` 7.q.5.2.1.7.7.s 6 A 6 R t.w.0.q.w.,.t 9 K } ;.1.6.6.8.r.L e k J ",
"q.t.r.s n %.,.2.%.#.;.C w w 2 F @.` +.+.$.;.,.;.+.=.O.- r _ 3.q.3.1.2.1.1.1.9. .0 , P 9.5.1.1.1.5.7.s f 9.9.6.5.3.3.6.r.T - x 1.",
",.1.r.W e  .+.@.+.3.A O y n i & T @. .+. .O. . .#.:.s & ' 1.1.2.1.1.1.1.1.1.3.7.M ; ( ,.1.3.1.1.5.6.k n 1.,.5.1.1.1.2.0.I @ U 6.",
"&.,.3.&.7 L $.@.1.V . x { 0.;., ; ) +.#.+.O.X.#.3.F O M ;.+.;.3.1.1.1.1.1.1.3.6.G % A ,.@.1.3.1.3.7.k B ,.@.3.3.2.1.3.9.V > ` 3.",
"E E I A w c ;.@.k . J 0.9.3.r.$.. 7 +. .+.$.@.1.Y 6 9 I @.+.#.2.2.1.1.1.2.1.5.1.v 2 s } @.@.1.5.5.2.k A 1.+.$.2.2.2.4.2.x 9 A E ",
"< 2 < & 6 i V g & E w.5.1.1.1.t.'   z @.' { >.) 6 r g )  .+.X.-.5.1.3.5.3.5.6. .w r 8 J <.+.@.,.,.&.f N -.+...O.+.@.2.' w r < > ",
"` { { ` U w , 6 U w.3.1.1.1.1.3.r.L   A %.@.) q i z w { o. .@...&.&.&.&.;.;.3.J @ } L 8  .@.} +.;.$.6 x ;. .O.#.+.$.#.e , C Y ) ",
"7.6.7.0.t.R 1 k ' 6.2.2.1.1.3.1.;.5.x X I ^ u 5 q 7 . 9 ! %.%.+.+.+.+.+.+.@.$.7 x 7.1.r v &.+.| / h & 6 M _ O.$.;.%.x o V 3.7.7.",
"2.1.1.1.7.6.i 2 ) *.3.4.4.3.,.+. .&.>.t : 9 6 w E +.J 9 O s Y +.&.@.+. .O.1.J -  .1.1.^ 7 m x 8 3 7 V n , , s D ! k - p ' 1.3.2.",
"1.1.1.2.1.q.L & W X.@.&.,.@.} O.+.O.1.^ 9 i 7 ` y.q.w.7.E 6 & k S !  .@.-.~ 6 t E ,.2.6.b , 1 l ! $.6.7.;.P i & @ e w M ;.,.3.1.",
"1.1.1.1.2.6.$., C +.X.#.+.X.+.+.+.@.+.%.l + ! q.3.,.1.5.r.0.F , 0 9 w z c t d p 6 9 M  .I < V 6.5.6.4.4.6.w.0.+.n t t E @.;.3.,.",
"1.2.2.1.1.5.7.f p +.` X.X.o.+.+.#.@.+.O.9 c 3.&.3.3.4.1.1.9.3.j 9 s s s i w i J ' A i 9 7 7 D 1.5.2.1.1.1.1.5.r.@., s { } @.3.2.",
"1.2.<.1.1.3.6.J & ^ &. .X.@.@.@.+.{ { J = A @.+.,.1.5.1.2.9.@.6 n 1.6.7.r.R - ) 6.r.9. .C - b ;.,.2.1.2.1.1.1.6.+., n  .} +.@.3.",
"1.3.1.1.4.1.-.' , r L J S n k p t 7 9 & w s W +.X.&.&.,.,.9.L , &.0.2.3.9.1.8 L &.;.5.0.u.G - ` $.1.3.1.2.2.3.7.{ , F } { $.+.@.",
"+.1.2.5.2.$.#.' f 7 & , ; * 2 e s k n A x # s  .} +.+.} @.&.6 x 0.4.1.2.2.9.h n >.$.1.3.6.w.j t %.$.1.2.1.1.;.1.` 6 Y  .' +.+.X.",
"+.O.&.1.&.O.;.K * x W ! ( ] #.,.3.5.6.0.3.F X k @.{ O.&.,.L $ Q 3.3.2.2.3.w.V h =.@.$.;.,.9.1., n &.$.$.$.@.+.,.Q 9 ( ] / | #.+.",
"+.O. .O.O.#.o.7 6  .5.5.6.6.6.5.5.5.3.3.7.0.L   M @.` X. .9 s +.@.1.4.3.2.3.I i {  .+.O.#.%.9.E O F >.;.;.&.@.{ z 4 { ' ) ) X.@.",
"O.@.+.+.+.&.n . W 4.6.5.3.1.2.1.1.1.1.2.5.4.5.F & B o.;.M & J %.+.#.1.;.+.$.{ 0 P @.@.;.$.+.X.^ 0 < M I A b k i y 7 F ;. .( ( { ",
"' { O.O.&./ . z &.+.%.;.1.2.4.3.2.2.3.1.&.+.3.+.2 + M Y w t Y -.+.+.#.+.@.@.@.s 7 n n v k s w 3 i b 2 - 6 , , 7 s w 6 V ) +.o.' ",
"[  .+.&.[ 7 2 { { o.+.+.X.&.&.>.1.;.&.+.O.,.' r 6 b w + a s F $.+.-.&.&.;.%.+.z 7 8 6 e 6 e f n a p j K ,.$.' ! F b w & r x F ^ ",
"7 p x m 6 % v +.o.o.+.+.+.O.O.+.+.+.X.&.;.P 6 = G 9.,.E c t 9 p k n N n l s s i t P } @.3.3.5.9.} = f 5.1.9.9.0.q.3.O.Z w 8 ; 2 ",
"P A m s i h 9 a M P ~ } +.&.&.$.#.#.-._ x + 6 j _ 6.0.u.7.C 9 r 9 7 2 g Y M e z t W 6.&.5.6.5.2.t.J 6 X.#.;.4.3.3.6.t.$., f _ E ",
"6.7.0.0.5.1.M 9 9 - e x x x F ( { ` c & % k w 1 ' &. .` J 9 6 r 9 k a W i.a.( 1 t k &.>.@.1.1.3.7.7.r V >.X.$.1.1.1.7.+.& I q.2.",
" .+.%.;.3.t.Y 1 z Z w > k L C i t , - M ] 3.&.w w c j 6 - h V v k 9 * F 3.9.M 7 i , x ^ %.;.&.;.,.9.R t  . .#.O.+.;.1.A ; C ] { ",
"s i t a x b s < I r.} 8 f i.+., t K -.q.9.3.r.+.2 t 8 i  .9.9.9.9.} , i 2.I g 1.X.w ; p s C { =.#.$.,.p F @.O.=.@.T x 6 w w i s ",
"/ Y A l 2 5 w c 2.6.r.>.9 i s x X.6.7.2.1.1.3.q.A 5 r ' q.5.2.3.7.9.n 7 x f &.0.r.@.w 8 v v w g W ' 6.A 6 { ^ V k i 1 f ` O. .` ",
"9.q.w.q.,.k , E 7.5.1.w.&.8 , ^ ;.+.3.4.3.2.3.7.H . E 9.3.1.2.1.2.7.C 8 2 ( q.1.1.w.} . I t.' j > i S c = 2 t w , j s E 9.0.6.7.",
"2.1.<.6.9.f 9 #.%.;.4.1.q.{ 9 s o.;.@.;.1.2.1.$.6 s 5.5.<.1.1.1.3.7.A & F 3.2.3.1.2.r.H w $.9.t.' s w r b I  .7.F @ M &.;.3.2.1.",
"1.2.2.9.Q 2 t P ;.O.;.3.3.5.n @ c  .;.X.#.$.1.C 3 +.5.2.1.1.1.2.3.6.M 6 ' &.&.3.1.1.6.6.p L $.;.p.O., c &.0.q.y.L @ W -.$.3.3.3.",
"2.3.5.,.s w w , ' ,. .-.6.^ 9 b w w I $.$.&.+.2 J 9.3.1.1.2.1.1.5.5.p k -.O.+.1.2.1.2.w.x 9 @.+.K s r V } <.,.q.N e X. .#.@.,.1.",
"X.+.1.S = i H 9 6  .$.$.} i 6 9 p t & i T  .p t &.4.2.1.1.1.1.3.3.%.s s +.+.+.+.2.3.3.7.A 6 x 6 . 1 t 6 9 A ! o.f e +.@.$.+. .} ",
") { L > a ( r.2.w w  . .j 1 b R O.,.` r , t 2 T &.&.1.4.1.1.2.1.;.{ f , V  .O.+.+.$.#.1.C w w c E / E P x 6 e p s t t n A Y ~ ) "
};
