/* XPM */
static char *_610687022845[] = {
/* columns rows colors chars-per-pixel */
"64 64 241 2 ",
"   c #7B592E",
".  c #6E5632",
"X  c #7C5837",
"o  c #6B5026",
"O  c #7B6737",
"+  c #797338",
"@  c #7F722C",
"#  c #7E7E40",
"$  c #865D3E",
"%  c #83633B",
"&  c #886B3C",
"*  c #84743B",
"=  c #877A3B",
"-  c #92713F",
";  c #865F42",
":  c #8B6845",
">  c #8B7344",
",  c #877A42",
"<  c #8D7B43",
"1  c #8D7C4A",
"2  c #887448",
"3  c #937444",
"4  c #937C45",
"5  c #92744A",
"6  c #947B4A",
"7  c #9A7C4C",
"8  c #997A46",
"9  c #9D7E53",
"0  c #967B52",
"q  c #936B47",
"w  c #A17F4D",
"e  c #A57F52",
"r  c #8D843D",
"t  c #94853F",
"y  c #858243",
"u  c #8C8245",
"i  c #8D8449",
"p  c #8F8D49",
"a  c #938343",
"s  c #9A8645",
"d  c #9B8945",
"f  c #94834B",
"g  c #9B844D",
"h  c #95894C",
"j  c #9C8B4D",
"k  c #9C934C",
"l  c #9A9549",
"z  c #958253",
"x  c #9C8452",
"c  c #958A53",
"v  c #9D8B53",
"b  c #9D8359",
"n  c #9E8B5A",
"m  c #9D9253",
"M  c #9E915C",
"N  c #A2854E",
"B  c #A38C4C",
"V  c #A68A4A",
"C  c #A4924D",
"Z  c #A9974E",
"A  c #A38454",
"S  c #AB8754",
"D  c #A38C54",
"F  c #AA8C54",
"G  c #A5855A",
"H  c #AA865A",
"J  c #A58B5A",
"K  c #AB8C5C",
"L  c #B28D5C",
"P  c #A49354",
"I  c #AB9454",
"U  c #AD9A55",
"Y  c #A4935A",
"T  c #AB945B",
"R  c #AC9A5B",
"E  c #A39A58",
"W  c #B39555",
"Q  c #B39A56",
"!  c #B2945D",
"~  c #B49B5C",
"^  c #BB9C5C",
"/  c #B89558",
"(  c #B19B4F",
")  c #ADA05D",
"_  c #AAA153",
"`  c #B5A25C",
"'  c #BBA35D",
"]  c #B7A65A",
"[  c #9F8262",
"{  c #AC8C61",
"}  c #A68863",
"|  c #B18E63",
" . c #A79462",
".. c #AD9461",
"X. c #AD9963",
"o. c #AC9667",
"O. c #B39563",
"+. c #BA9565",
"@. c #B49B63",
"#. c #BB9C64",
"$. c #B5946A",
"%. c #BB9669",
"&. c #B49D6A",
"*. c #BC9D6B",
"=. c #BD9C73",
"-. c #B6A264",
";. c #BCA363",
":. c #B6A862",
">. c #BCAA64",
",. c #BCA36B",
"<. c #BEAA6A",
"1. c #B5A36A",
"2. c #BEA272",
"3. c #BEAA72",
"4. c #B7A172",
"5. c #B9B264",
"6. c #C39D5D",
"7. c #C0905F",
"8. c #C3A35E",
"9. c #C9A45E",
"0. c #C5AB5F",
"q. c #C29D63",
"w. c #C29E6A",
"e. c #C09972",
"r. c #C3A464",
"t. c #CAA566",
"y. c #C4AB65",
"u. c #CBAC66",
"i. c #C3A46B",
"p. c #CBA66A",
"a. c #C5AB6B",
"s. c #CBAC6C",
"d. c #D1AB65",
"f. c #D2AD6C",
"g. c #DAAC6C",
"h. c #C4B16B",
"j. c #CBB26D",
"k. c #C8B466",
"l. c #D3B567",
"z. c #D3B46D",
"x. c #DAB46E",
"c. c #D4BB6C",
"v. c #DAB96E",
"b. c #C4A472",
"n. c #C6AB72",
"m. c #CBAD73",
"M. c #CCAC7A",
"N. c #C7A778",
"B. c #D3AE73",
"V. c #D5AB77",
"C. c #C7B274",
"Z. c #CDB372",
"A. c #CEB975",
"S. c #CCB27A",
"D. c #CAB878",
"F. c #D4B373",
"G. c #DAB574",
"H. c #D4BA74",
"J. c #DBBA74",
"K. c #D4B47B",
"L. c #DBB67A",
"P. c #D5BB7A",
"I. c #DCBB7B",
"U. c #E2B66D",
"Y. c #E2BA75",
"T. c #E3B67A",
"R. c #E3BC7C",
"E. c #EABC7C",
"W. c #E7B977",
"Q. c #DCC275",
"!. c #DCC37C",
"~. c #DDC97D",
"^. c #D4C07B",
"/. c #DAC26C",
"(. c #E4C27C",
"). c #EAC37C",
"_. c #E3CA7C",
"`. c #ECCB7D",
"'. c #E5C576",
"]. c #F1C67D",
"[. c #EAD27E",
"{. c #E2C26F",
"}. c #CBAC82",
"|. c #D6B482",
" X c #DBB583",
".X c #D5BB83",
"XX c #DCBB83",
"oX c #DCBC8A",
"OX c #DDB68B",
"+X c #CDBD81",
"@X c #E3BD83",
"#X c #EBBE84",
"$X c #E4BC89",
"%X c #E2B780",
"&X c #F0BF84",
"*X c #DDC381",
"=X c #DECA86",
"-X c #DFC28A",
";X c #E4C283",
":X c #EBC384",
">X c #E5CB84",
",X c #ECCB84",
"<X c #E5C48A",
"1X c #EBC48B",
"2X c #E6CB8B",
"3X c #ECCC8B",
"4X c #F3C483",
"5X c #F2CB83",
"6X c #F3CD8B",
"7X c #F6C88A",
"8X c #ECD284",
"9X c #EDD28B",
"0X c #E9D689",
"qX c #F2D385",
"wX c #F3D48C",
"eX c #F4DB8C",
"rX c #F9DC8D",
"tX c #F7D986",
"yX c #E9C991",
"uX c #F2CB94",
"iX c #EED392",
"pX c #ECD991",
"aX c #F3D492",
"sX c #FBD593",
"dX c #F5DB93",
"fX c #FADC93",
"gX c #F6DB9A",
"hX c #FBDD9B",
"jX c #FAD798",
"kX c #FBE18C",
"lX c #F8E68E",
"zX c #FCE294",
"xX c #FDE39C",
"cX c #FEE99D",
"vX c #FAE796",
"bX c #FBDBA2",
"nX c #FDE5A3",
"mX c #FEEBA3",
"MX c #FDE5A9",
"NX c #FFF9A4",
"BX c #FFEDB3",
/* pixels */
"> M.y.;.,.' ' ~ ' u.u.;.s.m.a.I.(.Z.;.^ ^ ` <.^ a.F.C.s.B.s.j.0 : B.' P Q ' ^ ^ C..XoXL.XXK.r.P.I.u.y.m.K.XXP.|.P.K.$X.Xy.p.!.K ",
"A ;XJ.' a.H.;.Z.^.~.9X3X>XQ.,XeX>X,X,XP.gXnXiX;X:XaXiX(.>XwXzXV.G <XH.s.P.K.u.wXxXiXiXxXmXdXJ.`.`.`._.;XnXxXgXdXxXnXdXxXgX6XzXS.",
"x R U U ` Q <.X.,.n.,.K.Z.r.S..Xu.z.G.G.:XoXuX1XL.L.P.l.z.J.5X6.} O.` P.K.s.).;X3X:X$X$XyX1XT.L.I.B.V.Z.2XI.H.;X(.;XR.J.:X#X'.r.",
"{  .T C.;.>.T T Y @.M.Z.y.S.K.V.s.R.G.R.:X$X$X1XK.I.E.z.a.R.qXq.} T @.6X:XF.7XT.E.W.#X$X:X$XL.:X#XK.V.L.V.I.E.#X#X;X1XE.T.V.6XI.",
"H ,.b.b.#.U Q :X<XY n.z.Q P.K.K.B.E.;X%X&X1X&XuXL.F.:X:Xp.-XmXm.x @.,.r.F.Z.:X:XG.Y.6XuX6X:X:XR.R.F.@X;XR.T.:X#XR.:XE.).u.R.xXF.",
"| #.N.|.&.u t.I.$X=.v U R #.m.M.m.K.p.K.|.K. XXXXXV.p.P.#.i.hXn.g K ' ~ N P B.I.g.p. XOX%XL.@XK.m.p.K.V.F.K.F.K.Z.n.F.y.,.V.,Xa.",
"$.OXO.N.=. .@.%.*.9 n h Y O.T X.*.*.*.%.O.@.*.O.w.N.+.i.O.G H.N.A M.T n.&.n n.p.t.! +.b.w.b.w.i.#.+.*.*.b.*.O.%.&.O.K A  .,.*Xs.",
": $.} { [ 2 { H z 1 1 z f v Y , > 4 K G e A A x H { H H A 9 V & o b G ..G 6 | %.K A A H A H 7 5 A g K T | A A G 5 3 } 5 = 1 ..x ",
"S.S.Z.m..X@.B D P r.P E >.E E O q XXu.t.y.u.s.m.M.n.Z.j.a.;.;.r.a.a.t.^ r.~ I ;.h.D.Z.h.m.M.D.4   3.-.t.C.i.W y.m.r.F.&.P ~ C U ",
"fXcXmXxXcXxXj.R y.~.5.l k h.mXt./ 6XtXvXrXeXfXfXxXcXzXeXzX0X'.xXhXhXxXsXeXrX[._.yXxXnXnXxXmXNXH.6 *X_.'._.qX'.eXmXfXQ.H.Q.>XtX/.",
"z.Q.z.F.F.(.!.u.-.v c l + _ vXu.H b.F.:X>X@X@XI.K.P.K.s.Z.H.I.I.x.J.(.Y.@XI.@X!.Y.G.R.G.K.<XcXq.z E _ j.(.;XL.H.*X3Xt.P <.j.H.v.",
"G.g.d.R.F.r.'.).,X@.+ E l r >Xb.9 b.;XY.Y.T.G.E.G.F.G.r.8.J.I.E.G.L.).R.Y.F.z.G.E.).;Xx.F.R.,Xr.1 Y :.y.F.;XF.J.XXG.;X@.E :.' Q.",
",X:XJ.R.:Xu.Y.,X7XI.t p _ Z ~.C.A 2.:X`.'.R.W.:X5X3X,XJ.F.J.v.x.I.#XI.(.R.u.h.).4XR.;XK.H.'.,Xr.0 Y @.h.a.;XG.F.(.{.,XZ.Z y.Q y.",
"^.I.F.y.F.F.L.F.I.*Xj y p E qXy.K %.p.5XR.F.z.K.L.G.G.R.F.r.s.a.,.a.>.<.F.;.~ p.F.P.y.@.;.a.>X;.f m f Y Z.f.p.B.H.h.y.>.Q ` ;.R ",
"! ;.i.O.&.2.,.1.-.J n i y l 9Xm.H <XK T m.#.i.b.b.,.O.W ,.O.! -.-.R M  .-.r.! R ~ ..X.T O.@.(.s.i X., y &.^ q.*.}.J 2  .T D ..&.",
"x G 9 9 n b J b n 1 1 , , j O.& O @.f 2 | F G { ..K G 7 J X.g 8 D 4 > f h D B f J P A n g A @.0 o x f + v { A G | } O i E Y c b ",
"5 H.j.a.r.q.^ D R <.@.Y j C d h :.P C -.a.i.b.n.n.k.-.R B ;.3.O & !.y.i.F 0.y.O.W 0.z.m.b.n.r.;.-.U f 1.XXp.s.F.B.' R C l U j.g ",
"J aXxXdXwXwX>X=X^.2X2XD.j.>.P >.^.H.^.A.pXnXxXgX*X_.0XF.z.Q.wXL K MXtXzX;XQ.J.,XG.(.xXhXgX9XH.A.!./.U _.hXdXmXmX=X] Q.~.h.F.tXI.",
"T ^ h.I.J.z.y.h.>.-.>.` y.a.U P -.-.&.1.:.J.*XC.` ] k.r.q.Y.9X^ | N.;XwXz.' ~ l.v.u.R.:XP.j.U R ' 0.C k.'.*XH.U P y.J.u.F.G.rXv.",
"G 3.n.H.;XP.a.;.n.N.a.y.;.Z.:.U ` h.>.<.Z.S.K.-.m >.Z.^ K.aXiXW G b.XXr.] a.<.Q z.I.a.J.t.a.R P >.u.1.a ] ) d P ! a.z.F.l.x.rX.X",
"9 &.S.a.F.;XH.F.iXXXn.A.;.>.h.-.:.-.h.y.Z.*X-.a.>.;.a.a.XX;XMXL 8 N.S.t C a.a.B.G.XX3Xs.r.h.j.-.a.r.!.-.a P a.Z.H.F.I.J.Y.,XcX.X",
"D v I a.m.K.F.r.F.M.@.X.;.-.-.@.-.<.~ 1.,.-.R P -.I R :.n.y.xXF.L #.D s.W N I.jXXXs.F.u.i.~ y.a.~ d B T Z ~ s.F.y.y.Z.s.t.F.zXL.",
"Y 3.h *.2.a.,.! G R X.n P X.Y D R &.2.#.&.Y T v v f c Y &.,.-XC.$.OXO.OX&., i E P ,.a.! #.2.Y R 1.R T I I D N K T Y #.a.#.w.wX;X",
"#  .G J J J J K 2 = i 1 < z D * 9 x G G A A 7 1 c c i f n T D % $ e.O.! 8 = i O y E ! D v X.J 4 j < J T D A g 4 A G A J e A -.0 ",
"w.t.p.p.F.j.Z.K.m.p.W ~ i.#.h.7 % I.y.m.C.F.Z.j t U S.,.:.j.F.s.q.u.a.d.b.y :.@.R ` ^ y.,.W ] - & m.q.6.8.y.j.F.6.F.t.6.t.^ r.r.",
"xXwXkXkXrXcXxXzXzXcX[.c.!.gXqXq.S sXcXnXvXmXnX:.` -.F.k.A.sXaXdXrXzXrXlXnX1.] <.k.>XzXwX<XiXqX,.7 ;XwXwXwX,XqXxX:X:X5XqXmXcX9XwX",
"F.;XR.6X:XJ.F.E.).F.s.F.8.G.kX6.9 *.$X2X:X3XP.Z U ` ` u.f.R.E.F.F.1X2X(.;X<.r ` ` ] z.G.F.2XkXt.G Q u.u.z.Y.,XJ.G.w.p.d.s.$X<XL.",
"G.I.L.K.R.x.x.J.W.u.j.Y.g.8.lXj.J #.F.E.E.6X#.U P >.h._.7XW.:X3XG.:X#X7X:XT l ` >.] ' u.F.;XwXr.A #.L.u.f.;XL.f.U.R.6.U.G.T.W.I.",
"#XJ.;X;Xd.9.).).z.u.c.x.U.R.rXt.T p.F.x.`.I.D P U U >.'.5XG.).sX).:XaX6XL.T m U >.>.j.G.XX,XfXi.A @.K.p.' r.t.x.'.v.E.U.4X4XW.Y.",
"a.p.F.G.L.8.r.f.F.^ 8.j.s.a.qXt.H #.B.d.t.D D R Q I -.r.F.f.F.1XG.m..Xa.U l k j P I h.>XP.l.gXt.q.N = ` U J Q M.r.y.R.g.r.E.m.H.",
"b.*.#.+.i.w.! w.p.,.I ~ +.F ).q.$..X+.O.O.J v ;.,.D &.i.i.#.i.N.' g J m f m m v J E R R #.a.jXK.| N.t m M o.T ..R #.i.N.#.W @.*.",
"K K J g H G H { H 9 b g j A F - % *.K 5 G } < j L g n J { O.K 9 G > 6 > < j T v j g > > A K @.q % J 6 g 4 f R D 9 %.L L L 7 A 5 ",
"3 s.y.M.s.s.w.Q t.n.*.8.-.K.i.' ;.8.a.,.u.M.,.#.a.t.r.r.a.s.+X>   S.y.~ s t Z C R j.F.P.a.C.F.i.k.F.W Q U B V ] C ' P.j.u.y.S.b ",
"g *XaXnXxXrX,XzXwXnX3X!.9XgXdXeX(.J.qXrXeXbXyXaX3X9X9XgXdXcXNXs.A H._.'.` ~ A.y.dXxXdXmXzXzXkXtXwXdXJ.8.j.*Xr.j.k.c.eXlXdXcXBXP.",
"e *.K.F.P.;X;X<XR.K.K.r.P.$X;XY.q.#.m.F.F.j.V.P.XXS. XoXK.pXMXy.G T R j.~ U R >.{.).J.I.F.G.J.U.W.t.y.<.u.fXd.^ ^.#.B a.Q.'.xXJ.",
"%.b.T.G.R.:XE.R.,XI.p.K.Z.XXJ.f.R.P.m.F.P.a.|.@X$X%XI.M. X<XiXr.G @.-.' >.] V y.5X:X:XR.;XR.E.sX`.j.` a.Q.].U.F.d.F.a.q.8.L.rXz.",
"K N.$X#X;XI.Q.).;X:XG.M.y.s.s.I.>X;XXX2XuXT.L.<X:X:XI.L.I.:X_.W F j >.s.^ _ ( ;XuX1X:X:X,X,X4XH.;.' y.` Z.;X:X6Xg.).R.].d.z.fXS.",
"Y *.i.K.*.O.F.M.@XL.r.T U I m.C.,.n.m.m.p.t.^ r.K.a.y.F.K.n.Q.W F j s ^ U k ] ;X|.P.I.F.G.$XF.R U U ~ ` -.a.I.E.P.x.u.z.s.y.zXP.",
"J oXT *.X.h 3.*.i.,.K J T D D  .&.N.*.O.b.*.,.K n T @.O.O.&.9Xr.N n.N T R D X.a.n.b.i.N.b.*.f h v j P P n.@.! #.;.q.#.a.*.@.8X-X",
"% K J O.b + T &.v D S J x O.5 . b 5 G O.O.G K K * 6 H | G } ..O O H H j f 1 z P T O.O.O.x u j f * * h v T 1 v +.! G } { { K Q 4 ",
"K.Z.~ I ' I a u a ] Q.s.r.V j.4 : M.y.r.r.y.,.,.~ a.m.;.y.;.! ,.s.r.y.Q ~ #.Q T Q y.a.I Z Q V O > Q U I #.n.~ ^ a.b.m.m.^ r.' -.",
"rXzXtXH._.R.;.<.>.!.nX;Xj.0XvXp.K dXkXrXwX2XD.A.J.h.H.>X9X!.9XsXxXwXdXwX3XaX2X;X~.~.^.>.5.8XpXs v !.J.J.5XzXQ.k.~.dXcX9X3XsX_.wX",
"K.F.F.s.r.' j.' E Z.Q.L.I =XNX/ 9 N.XX3X,X^ ,.~ ` ;.y.z.j.j.J.Q.J.J.x.J.J.F.Z.Z.' y.Q R @.j.3X^ > R z.c.P.G.a.-.y.a.C.i.j.J.{.R.",
"F.F.j.j.-.U -.R P R *X!.#.I [.f.9 e.6X).Q ,.;.;.Z.I.s.p.t.r.z.x.G.).G.L.Z.s.a.C.K.L.W I <.a.9Xw.} A r.y.u.j.F.j.r.z.t.r.F.I.).R.",
").).d.j.y.R ~ a.n.M ~ c.` I ' I I N.P.] l ^.p.Q Z.;XI.u.s.P.I.I.B.F.G.G.H.S.m.Z.wX5XI.T u.yXBXm.K =.i.z.v.I.t.t.f.I.).d.B.:XR.).",
"y.r.,.;.a.,.-.P P f h y.I ` ( @ h c = # ) y.S.X.~ C.Z.y.^ F.P.F.a.W r.y.p.a.a.a.B.f.M.R Q yXMXf.L *.~ j.u.f.f.s.a.^ F.R.6.p.F.F.",
"+.~ ! T X.@.T P Y x h ) #.V P.o.O p + y m v P T D < f R ,.&.&.#.1.@.Y T @.,.+.,.b.+.+.O.4.=.bXV.| |.8 @.,.~ r.a.r.! ! ;.^ V F i.",
"H O.J 8 < 4 j z Y J & h o.- $.5 . c , # + u h Y g < 7 6 v O.A 6 A { 7 7 z J J J o.x N A { } $.>   F g 1 e S F S ! F g A T J 5 x ",
"& |.K.F.O.;.;.P d F L Q a.p.S.S.K.A = r = m j B P v R k.' r.^.5 X G.g.p.r.^ s.p.Z.M.m.K.a.m.a.F.K.r.r.t.p.K.w.6.p.r.u.r.W 8.P.A ",
"F aXzXmXdX;XP.a.H.K.,.k.!.wXzXfXhXwXH.0XiX6Xp.Q <.D.D.^.H.v.lXF.A jXvXrXsX'.8XeXzXxXhXfXhXjXxXxXxXjX5X5XfXsX4X].`.W.>X,Xv.v.mX<X",
"$.i.K.<XI.6.t.a.`.6Xs.x r.z.m.F.$XuXaX,X4XE.r.j X.` F.j.#.a.8Xp.{ b.W.5XE.U.G.T.:X:X#XL.#X).4X).Y.).).g.U.g.x.l.6.G.J.u.9.x.zXF.",
"x *.G.T.d.G.Y.#XT.:X1Xw.a.K.G.W.;X#XR.R.iXp.B h f y.I.F.f.R.qXb.L w.g.W.E.].E.&X#XT.T.E.E.#X&X4XW.W.B.d.4XW.6.u.8.F.W.T.x.Y.fXF.",
"f w.$XH.I.6XR.L.1X:X1X@Xy.H.:XR.J.j.y.W ) P U @.~ k.F.I.#X_.qX#.{ M.#Xx.J.(.(.W.7X4XW.&X4X#X4X:X).W.g.T.I.:X9.8.Q.x.U.T.R.4XjXz.",
"J K i.y.a.L.s.t.L.V. XK.Q a.XXK.s.i.,.R < j P 8 I ;.' ,.m.u.`.9.L %.w.p.F.Q ~ ;X&XE.g.V.).R.p.G.R.F.G.L.i.F.B.V p.G.d.6.r.K.hXJ.",
"K N.Y &.O.X.O.~ %.b.}.&.T ! *.i.&. .Y ..&.G T %.g v ! 1.T R L.p.L K.F #.R 4 = D G I m.T W M.w.W W q.w.w.q.F ,.#.+.+.w.t.*.+.:XL.",
"$ J x P T A H H 9 9 o.0 j n 6 G 9 4 x R ! - K L x f A O.J J x * & H g N 8 = P a O O g g 8 A F 8 A A H { L 8 e +./ e A K F S S 4 ",
"w.s.a.#.n.y.m.|.K.t.p.i./ ~ n.6 $ V.Q t.C.<.K.w.Q s.#.Q ^ F I ^ z.s.6.V F j t ' y.j.-.D u.8.6.- : .Xa.r.^ V.M.}.K.V.i.N.B.r.6.t.",
"qXwX:XjXBXiX6XmXmXdXwX2XyXdXdXj.A @XrX!.;XaX2XG.l.8XQ.l.`.G.J.'.wXcXwXF.s.` l ` j.y.k.( c.kXkX8.H gXxXwX:XbXMXMXmXdXwXdXaX3X>XfX",
"f.L.p.b.*X*XJ.J.XXs.Q i.OXiXaX^ S ~ ,.r.s.z.' u.z.;.i.n.G.).v.F.J.2Xs.` r.Q C k R P R <.Q H.jXa.J b.;Xx.;X1X@X$X:XI.%X X;XE.B.R.",
"f.F.a.' ^ M.XXJ.G.Y.B.r.q.J.3X6.L ,.! ~ Q y.r.s.K.F.s.|.M.@Xs.s.:X:Xt.#.;.^ :.R 3.S.m.a.' y.(./ H b.|.J.j.;X:XR.%XY.R.:X1X1XV.f.",
"I.z.z.G.m.F.G.G.x.G.R.G.f.L.qX~ F w.&.h.u.Z.F.y.-.a.F.K.K.Z.z.L.:X;Xp.F.~ y.<.! N.s.Z.a.s.l.`.^ G b.n.*Xf.F.5X).).G.%X6X1X:XL.f.",
"i.+.i.t.W t.q.#.@.^ i.K.s.a.qXr.| @.G Y -.-.;.Q Z ,.V.m.s.~ ^ K.K.p.#.r.y.! ,.-.,.~ s.t.a.j.[.m.! +.! -.w.^ f.T.T.B.V.K. XK.V.f.",
"F R G ! ! #.i.! T R R R ,.i.,XL.*.F.D T ) -.X.1.T O.2.2.N.+.F *.N.b.@.T @.R ..&.-.X.Y R @.W I.K.*.oX! T b.*.+.b.b.b.i.*.%.w.#.#.",
"D D J P D K ..J D K J 4 S | T 5 X *.K g Y K K T D  .J G $.F G O.$.} J T < c J J D b 0 7 b 9 A q X $.O.J T L } K O.! O.| K H L +."
};
